<?xml version="1.0" encoding="UTF-8"?>
<svg width="48px" height="48px" viewBox="0 0 48 48" version="1.1" xmlns="http://www.w3.org/2000/svg" xmlns:xlink="http://www.w3.org/1999/xlink">
    <!-- Generator: Sketch 51.3 (57544) - http://www.bohemiancoding.com/sketch -->
    <title>ic-methodology-project-team-icon</title>
    <desc>Created with Sketch.</desc>
    <defs></defs>
    <g id="Page-1" stroke="none" stroke-width="1" fill="none" fill-rule="evenodd">
        <g id="ic-methodology-project-team-icon" fill="#43C06E" fill-rule="nonzero">
            <path d="M43.78125,0 C46.1074687,0 48,1.8999529 48,4.2352941 L48,43.7647059 C48,46.1000471 46.1074687,48 43.78125,48 L4.21875,48 C1.8925313,48 0,46.1000471 0,43.7647059 L0,4.2352941 C0,1.8999529 1.8925313,0 4.21875,0 L43.78125,0 Z M45.1875,14.1176471 L2.8125,14.1176471 L2.8125,43.7647059 C2.8125,44.5431529 3.4433437,45.1764706 4.21875,45.1764706 L43.78125,45.1764706 C44.5566563,45.1764706 45.1875,44.5431529 45.1875,43.7647059 L45.1875,14.1176471 Z M26.9262188,19.2085647 C27.232125,18.4919529 28.0589063,18.16 28.7727188,18.4671059 C29.4865312,18.7742118 29.8172813,19.6041412 29.5112813,20.3208471 L21.0737813,40.0855529 C20.7679688,40.8019765 19.941375,41.1342118 19.2272813,40.8270118 C18.5134688,40.5199059 18.1827188,39.6898824 18.4887188,38.9732706 L26.9262188,19.2085647 Z M14.6840625,22.8976 C15.29025,22.4105412 16.1753437,22.5091765 16.6605937,23.1180235 C17.14575,23.7269647 17.0475,24.6153412 16.4409375,25.1024 L10.782375,29.6470588 L16.4409375,34.1918118 C17.0475,34.6787765 17.14575,35.5672471 16.6605937,36.1760941 C16.175625,36.7848471 15.2905312,36.8836706 14.6840625,36.3965176 L7.6528125,30.7494588 C6.9493125,30.1845647 6.9497812,29.1090824 7.6528125,28.5446588 L14.6840625,22.8976 Z M31.3394063,23.1180235 C31.8244688,22.5091765 32.7094688,22.4104471 33.3159375,22.8976 L40.3471875,28.5446588 C41.0506875,29.1095529 41.0502188,30.1849412 40.3471875,30.7493647 L33.3159375,36.3964235 C32.7103125,36.8830118 31.8252188,36.7855059 31.3394063,36.176 C30.85425,35.5671529 30.9525,34.6787765 31.5590625,34.1917176 L37.217625,29.6470588 L31.5590625,25.1023059 C30.9525,24.6153412 30.85425,23.7268706 31.3394063,23.1180235 Z M43.78125,2.8235294 L4.21875,2.8235294 C3.4433437,2.8235294 2.8125,3.4568471 2.8125,4.2352941 L2.8125,11.2941176 L45.1875,11.2941176 L45.1875,4.2352941 C45.1875,3.4568471 44.5566563,2.8235294 43.78125,2.8235294 Z M7.125,5.6470588 C7.9016504,5.6470588 8.53125,6.2791274 8.53125,7.0588235 C8.53125,7.8385196 7.9016504,8.4705882 7.125,8.4705882 C6.3483496,8.4705882 5.71875,7.8385196 5.71875,7.0588235 C5.71875,6.2791274 6.3483496,5.6470588 7.125,5.6470588 Z M12.75,5.6470588 C13.5266504,5.6470588 14.15625,6.2791274 14.15625,7.0588235 C14.15625,7.8385196 13.5266504,8.4705882 12.75,8.4705882 C11.9733496,8.4705882 11.34375,7.8385196 11.34375,7.0588235 C11.34375,6.2791274 11.9733496,5.6470588 12.75,5.6470588 Z M18.375,5.6470588 C19.1516504,5.6470588 19.78125,6.2791274 19.78125,7.0588235 C19.78125,7.8385196 19.1516504,8.4705882 18.375,8.4705882 C17.5983496,8.4705882 16.96875,7.8385196 16.96875,7.0588235 C16.96875,6.2791274 17.5983496,5.6470588 18.375,5.6470588 Z M40.875,5.6470588 C41.651625,5.6470588 42.28125,6.2791529 42.28125,7.0588235 C42.28125,7.8384941 41.651625,8.4705882 40.875,8.4705882 L32.4375,8.4705882 C31.660875,8.4705882 31.03125,7.8384941 31.03125,7.0588235 C31.03125,6.2791529 31.660875,5.6470588 32.4375,5.6470588 L40.875,5.6470588 Z" id="Shape"></path>
        </g>
    </g>
</svg>